<?xml version="1.0" encoding="UTF-8"?><svg id="b" xmlns="http://www.w3.org/2000/svg" viewBox="0 0 466.39 466.39"><defs><style>.d{fill:#231f20;}.d,.e{stroke-width:0px;}.e{fill:#fccc55;}</style></defs><g id="c"><circle class="e" cx="233.2" cy="233.2" r="233.2"/><rect class="e" x="261.08" y="111.56" width="48.21" height="88.05"/><rect class="e" x="136.78" y="108.69" width="48.21" height="56.46"/><rect class="e" x="262.22" y="257.74" width="48.21" height="48.21"/><rect class="e" x="143.2" y="260.53" width="48.21" height="92.31"/><path class="d" d="M145.6,212.36c-1.01,0-1.18-.33-1.18-1.35v-107.08c0-.67.17-1.35,1.01-1.35,11.26-.34,18.66-.51,31.27-.51,25.72,0,41.19,11.43,41.19,32.62,0,14.78-9.58,24.87-21.18,29.26,5.38,7.72,24.88,37.81,29.76,46.73.5.84.67,1.68-.34,1.68h-19.33c-1.35,0-1.68-.33-2.18-.84-4.71-7.74-16.3-27.24-23.7-39.34-1.17-2.02-2.02-2.86-3.87-2.86h-14.12v41.85c0,.85-.34,1.18-1.17,1.18h-16.14ZM177.03,153.01c13.79,0,21.86-6.55,21.86-17.31,0-11.43-8.57-17.15-22.87-17.15-5.38,0-10.42.34-13.11.51v33.95h14.12Z"/><path class="e" d="M226.12,213.86h-19.33c-1.84,0-2.54-.56-3.25-1.29l-.21-.27c-1.92-3.16-4.99-8.27-8.45-14.04-5.1-8.5-10.87-18.13-15.25-25.29-1.14-1.97-1.59-2.14-2.59-2.14h-12.62v40.35c0,1.68-1,2.68-2.67,2.68h-16.14c-2.68,0-2.68-2.14-2.68-2.85v-107.08c0-2.1,1.35-2.85,2.51-2.85,11.46-.35,18.71-.51,31.27-.51,27.13,0,42.69,12.44,42.69,34.12,0,13.35-7.58,24.42-20.39,29.95,6.71,9.85,24.25,37.04,28.78,45.32.65,1.09.77,2.06.32,2.86-.22.39-.77,1.04-1.97,1.04ZM205.79,210.59c.25.25.36.27,1,.27h18.05c-5.28-9.43-23.85-38.12-29.37-46.05l-1.1-1.58,1.8-.68c12.66-4.79,20.21-15.2,20.21-27.85,0-19.78-14.47-31.12-39.69-31.12-12.35,0-19.56.15-30.78.49v106.79h15.5v-43.04h15.62c2.83,0,4.06,1.71,5.17,3.6,4.37,7.15,10.15,16.78,15.25,25.29,3.4,5.67,6.42,10.71,8.35,13.88ZM145.48,104.08s0,0,0,0c0,0,0,0,0,0ZM177.03,154.51h-15.62v-36.86l2.13-.13c2.81-.17,7.5-.47,12.48-.47,15.71,0,24.37,6.62,24.37,18.65s-8.73,18.81-23.36,18.81ZM164.41,151.51h12.62c12.94,0,20.36-5.76,20.36-15.81,0-12.93-11.62-15.65-21.37-15.65-4.5,0-8.79.25-11.61.42v31.04Z"/><path class="d" d="M261.25,103.93c0-.84,0-1.18.85-1.35,5.54-.16,19.83-.51,30.59-.51,33.62,0,39.17,18.17,39.17,28.93,0,11.93-6.39,18.82-10.76,22.01,6.39,3.2,16.14,10.6,16.14,26.07,0,21.17-17.99,33.79-44.89,33.61-13.12,0-24.04-.16-30.09-.33-.84-.16-1.01-.67-1.01-1.35v-107.08ZM279.75,146.62h12.27c5.72,0,12.11.51,14.63,1.02,3.7-3.02,6.73-7.06,6.73-14.13,0-10.25-7.57-15.29-21.02-15.29-5.04,0-9.41.16-12.61.33v28.07ZM279.75,196.39c3.53.16,7.39.33,12.11.33,15.29,0,25.89-5.21,25.89-17.31,0-7.23-3.7-12.94-12.44-15.13-3.02-.84-6.89-1.18-11.26-1.18h-14.29v33.3Z"/><path class="e" d="M292.91,214.19c-.19,0-.38,0-.57,0-13.27,0-24.26-.17-30.12-.33l-.25-.03c-.83-.16-2.22-.75-2.22-2.82v-107.08c0-.85,0-2.42,2.06-2.82l.24-.03c5.95-.18,20.02-.51,30.64-.51,36.71,0,40.67,21.28,40.67,30.43,0,11.27-5.36,18.13-9.56,21.77,6.34,3.73,14.94,11.51,14.94,26.31,0,8.95-3.16,16.81-9.14,22.75-8.03,7.98-21.05,12.36-36.69,12.36ZM262.75,210.87c5.95.15,16.69.32,29.6.32,15.11.12,27.57-3.98,35.13-11.48,5.48-5.44,8.25-12.38,8.25-20.62,0-14.09-8.33-21.23-15.31-24.73l-2.2-1.1,1.99-1.45c3.79-2.76,10.14-9.14,10.14-20.8,0-10.24-4.89-27.43-37.67-27.43-10.24,0-23.7.31-29.94.49v106.81ZM291.86,198.22c-4.7,0-8.59-.16-12.18-.33l-1.43-.07v-36.23h15.79c4.77,0,8.7.42,11.66,1.24,8.72,2.18,13.54,8.07,13.54,16.57,0,12.13-9.73,18.81-27.39,18.81ZM281.25,194.96c3.16.14,6.59.26,10.61.26,11.13,0,24.39-2.74,24.39-15.81,0-7.2-3.8-11.8-11.31-13.67-2.74-.76-6.39-1.14-10.9-1.14h-12.79v30.36ZM307.05,149.25l-.7-.14c-2.36-.48-8.69-.99-14.33-.99h-13.77v-31l1.42-.07c4.26-.22,8.53-.33,12.68-.33,14.52,0,22.52,5.96,22.52,16.79,0,8.37-4.15,12.73-7.28,15.29l-.55.45ZM281.25,145.12h10.77c5.5,0,11.33.46,14.2.92,2.74-2.36,5.65-5.93,5.65-12.53,0-9.15-6.57-13.79-19.52-13.79-3.64,0-7.37.09-11.11.26v25.14Z"/><path class="d" d="M144.42,255.44c0-.84,0-1.18.85-1.35,5.54-.16,19.83-.51,30.59-.51,33.62,0,39.17,18.17,39.17,28.93,0,11.93-6.39,18.82-10.76,22.01,6.39,3.2,16.14,10.6,16.14,26.07,0,21.17-17.99,33.79-44.89,33.61-13.12,0-24.04-.16-30.09-.33-.84-.16-1.01-.67-1.01-1.35v-107.08ZM162.91,298.13h12.27c5.72,0,12.11.51,14.63,1.02,3.7-3.02,6.73-7.06,6.73-14.13,0-10.25-7.57-15.29-21.02-15.29-5.04,0-9.41.16-12.61.33v28.07ZM162.91,347.9c3.53.16,7.39.33,12.11.33,15.29,0,25.89-5.21,25.89-17.31,0-7.23-3.7-12.94-12.44-15.13-3.02-.84-6.89-1.18-11.26-1.18h-14.29v33.3Z"/><path class="e" d="M176.08,365.7c-.19,0-.38,0-.57,0-13.24,0-24.24-.17-30.12-.33l-.25-.03c-.83-.16-2.22-.74-2.22-2.82v-107.08c0-.85,0-2.42,2.06-2.82l.24-.03c5.93-.18,19.97-.51,30.64-.51,36.71,0,40.67,21.28,40.67,30.43,0,11.27-5.36,18.13-9.56,21.77,6.34,3.73,14.94,11.51,14.94,26.31,0,8.95-3.16,16.81-9.14,22.75-8.03,7.98-21.05,12.36-36.69,12.36ZM145.92,362.38c5.96.16,16.71.32,29.6.32,15.11.09,27.57-3.98,35.13-11.48,5.48-5.44,8.25-12.38,8.25-20.62,0-14.09-8.33-21.23-15.31-24.73l-2.2-1.1,1.99-1.45c3.79-2.76,10.14-9.14,10.14-20.8,0-10.24-4.89-27.43-37.67-27.43-10.29,0-23.72.31-29.94.49v106.81ZM175.02,349.73c-4.69,0-8.58-.16-12.18-.33l-1.43-.07v-36.23h15.79c4.84,0,8.66.4,11.66,1.24,8.72,2.18,13.54,8.07,13.54,16.57,0,12.13-9.73,18.81-27.39,18.81ZM164.41,346.47c3.16.14,6.6.26,10.61.26,11.13,0,24.39-2.74,24.39-15.81,0-7.2-3.8-11.8-11.31-13.67-2.74-.76-6.39-1.14-10.9-1.14h-12.79v30.36ZM190.21,300.76l-.7-.14c-2.36-.48-8.68-.99-14.33-.99h-13.77v-31l1.42-.07c4.27-.22,8.53-.33,12.68-.33,14.52,0,22.52,5.96,22.52,16.79,0,8.37-4.15,12.73-7.28,15.29l-.55.45ZM164.41,296.63h10.77c5.5,0,11.34.46,14.2.92,2.74-2.36,5.65-5.93,5.65-12.53,0-9.15-6.57-13.79-19.52-13.79-3.64,0-7.37.09-11.11.26v25.14Z"/><path class="d" d="M264.71,361.09c-1.01,0-1.18-.33-1.18-1.35v-107.08c0-.67.17-1.35,1.01-1.35,11.26-.34,18.66-.51,31.27-.51,25.72,0,41.19,11.43,41.19,32.62,0,14.78-9.58,24.87-21.18,29.26,5.38,7.72,24.88,37.81,29.76,46.73.5.84.67,1.68-.34,1.68h-19.33c-1.35,0-1.68-.33-2.18-.84-4.71-7.74-16.3-27.24-23.7-39.34-1.17-2.02-2.02-2.86-3.87-2.86h-14.12v41.85c0,.85-.34,1.18-1.17,1.18h-16.14ZM296.14,301.74c13.79,0,21.86-6.55,21.86-17.31,0-11.43-8.57-17.15-22.87-17.15-5.38,0-10.42.34-13.11.51v33.95h14.12Z"/><path class="e" d="M345.23,362.59h-19.33c-1.84,0-2.54-.56-3.25-1.29l-.21-.27c-1.93-3.17-5.02-8.32-8.5-14.12-5.08-8.47-10.84-18.08-15.21-25.22-1.14-1.96-1.61-2.14-2.59-2.14h-12.62v40.35c0,1.68-1,2.68-2.67,2.68h-16.14c-2.68,0-2.68-2.14-2.68-2.85v-107.08c0-2.1,1.35-2.85,2.51-2.85,11.46-.35,18.71-.51,31.27-.51,27.13,0,42.69,12.44,42.69,34.12,0,13.35-7.58,24.42-20.39,29.95,6.71,9.85,24.24,37.04,28.78,45.32.65,1.09.77,2.06.32,2.86-.22.39-.77,1.04-1.97,1.04ZM324.9,359.32c.25.25.35.27,1,.27h18.05c-5.28-9.43-23.85-38.12-29.37-46.05l-1.1-1.58,1.8-.68c12.66-4.79,20.21-15.2,20.21-27.85,0-19.78-14.47-31.12-39.69-31.12-12.35,0-19.56.15-30.78.49v106.79h15.5v-43.04h15.62c2.84,0,4.06,1.71,5.17,3.6,4.36,7.12,10.12,16.73,15.2,25.21,3.42,5.71,6.46,10.77,8.39,13.95ZM264.59,252.81h0,0ZM296.14,303.24h-15.62v-36.86l2.11-.13c2.81-.17,7.51-.47,12.5-.47,15.71,0,24.37,6.62,24.37,18.65s-8.73,18.81-23.36,18.81ZM283.52,300.24h12.62c12.94,0,20.36-5.76,20.36-15.81,0-12.93-11.62-15.65-21.37-15.65-4.5,0-8.79.25-11.61.42v31.04Z"/><path class="d" d="M127.61,212.48c-1.01,0-1.18-.33-1.18-1.35v-107.08c0-.67.17-1.35,1.01-1.35,11.26-.34,18.66-.51,31.27-.51,25.72,0,41.19,11.43,41.19,32.62,0,14.78-9.58,24.87-21.18,29.26,5.38,7.72,24.88,37.81,29.76,46.73.5.84.67,1.68-.34,1.68h-19.33c-1.35,0-1.68-.33-2.18-.84-4.71-7.74-16.3-27.24-23.7-39.34-1.17-2.02-2.02-2.86-3.87-2.86h-14.12v41.85c0,.85-.34,1.18-1.17,1.18h-16.14ZM159.04,153.13c13.79,0,21.86-6.55,21.86-17.31,0-11.43-8.57-17.15-22.87-17.15-5.38,0-10.42.34-13.11.51v33.95h14.12Z"/><path class="e" d="M208.13,213.98h-19.33c-1.84,0-2.54-.56-3.25-1.29l-.21-.27c-1.92-3.15-4.98-8.26-8.44-14.03-5.1-8.5-10.88-18.14-15.26-25.31-1.14-1.96-1.61-2.14-2.59-2.14h-12.62v40.35c0,1.68-1,2.68-2.67,2.68h-16.14c-2.68,0-2.68-2.14-2.68-2.85v-107.08c0-2.1,1.35-2.85,2.51-2.85,11.46-.35,18.71-.51,31.27-.51,27.13,0,42.69,12.44,42.69,34.12,0,13.35-7.58,24.42-20.39,29.95,6.71,9.85,24.25,37.04,28.78,45.32.65,1.09.77,2.06.32,2.86-.22.39-.77,1.04-1.97,1.04ZM187.8,210.71c.25.25.36.27,1,.27h18.05c-5.28-9.43-23.85-38.12-29.37-46.05l-1.1-1.58,1.8-.68c12.66-4.79,20.21-15.2,20.21-27.85,0-19.78-14.47-31.12-39.69-31.12-12.36,0-19.56.15-30.78.5v106.79h15.5v-43.04h15.62c2.84,0,4.06,1.71,5.17,3.6,4.37,7.15,10.16,16.8,15.26,25.31,3.4,5.67,6.41,10.7,8.34,13.86ZM127.49,104.2s0,0,0,0c0,0,0,0,0,0ZM159.04,154.63h-15.62v-36.86l2.13-.13c2.81-.18,7.5-.47,12.48-.47,15.71,0,24.37,6.62,24.37,18.65s-8.73,18.81-23.36,18.81ZM146.42,151.63h12.62c12.94,0,20.36-5.76,20.36-15.81,0-12.93-11.62-15.65-21.37-15.65-4.5,0-8.79.25-11.61.42v31.04Z"/><path class="d" d="M248.83,104.05c0-.84,0-1.18.85-1.35,5.54-.16,19.83-.51,30.59-.51,33.62,0,39.17,18.17,39.17,28.93,0,11.93-6.39,18.82-10.76,22.01,6.39,3.2,16.14,10.6,16.14,26.07,0,21.17-17.99,33.79-44.89,33.61-13.12,0-24.04-.16-30.09-.33-.84-.16-1.01-.67-1.01-1.35v-107.08ZM267.32,146.74h12.27c5.72,0,12.11.51,14.63,1.02,3.7-3.02,6.73-7.06,6.73-14.13,0-10.25-7.57-15.29-21.02-15.29-5.04,0-9.41.16-12.61.33v28.07ZM267.32,196.52c3.53.16,7.39.33,12.11.33,15.29,0,25.89-5.21,25.89-17.31,0-7.23-3.7-12.94-12.44-15.13-3.02-.84-6.89-1.18-11.26-1.18h-14.29v33.3Z"/><path class="e" d="M280.49,214.31c-.19,0-.38,0-.57,0-13.25,0-24.25-.17-30.12-.33l-.25-.03c-.83-.16-2.22-.75-2.22-2.82v-107.08c0-.85,0-2.42,2.06-2.82l.24-.03c5.94-.18,19.99-.51,30.64-.51,36.71,0,40.67,21.28,40.67,30.43,0,11.27-5.36,18.13-9.56,21.77,6.34,3.73,14.94,11.51,14.94,26.31,0,8.95-3.16,16.81-9.14,22.75-8.03,7.98-21.05,12.36-36.69,12.36ZM250.33,210.99c5.95.15,16.7.32,29.6.32,15.08.11,27.57-3.98,35.13-11.48,5.48-5.44,8.25-12.38,8.25-20.62,0-14.09-8.33-21.23-15.31-24.73l-2.2-1.1,1.99-1.45c3.79-2.76,10.14-9.14,10.14-20.8,0-10.24-4.89-27.43-37.67-27.43-10.26,0-23.71.31-29.94.49v106.81ZM279.43,198.34c-4.7,0-8.59-.16-12.18-.33l-1.43-.07v-36.23h15.79c4.84,0,8.66.4,11.66,1.24,8.72,2.18,13.54,8.07,13.54,16.57,0,12.13-9.73,18.81-27.39,18.81ZM268.82,195.08c3.16.14,6.59.26,10.61.26,11.13,0,24.39-2.74,24.39-15.81,0-7.2-3.8-11.8-11.31-13.67-2.74-.76-6.39-1.14-10.9-1.14h-12.79v30.36ZM294.62,149.37l-.7-.14c-2.36-.48-8.69-.99-14.33-.99h-13.77v-31l1.42-.07c4.27-.22,8.54-.33,12.68-.33,14.52,0,22.52,5.96,22.52,16.79,0,8.37-4.15,12.73-7.28,15.29l-.55.45ZM268.82,145.24h10.77c5.5,0,11.33.46,14.2.92,2.74-2.36,5.65-5.93,5.65-12.53,0-9.15-6.57-13.79-19.52-13.79-3.63,0-7.36.09-11.11.26v25.14Z"/><path class="d" d="M131.99,255.56c0-.84,0-1.18.85-1.35,5.54-.16,19.83-.51,30.59-.51,33.62,0,39.17,18.17,39.17,28.93,0,11.93-6.39,18.82-10.76,22.01,6.39,3.2,16.14,10.6,16.14,26.07,0,21.17-17.99,33.79-44.89,33.61-13.12,0-24.04-.16-30.09-.33-.84-.16-1.01-.67-1.01-1.35v-107.08ZM150.49,298.26h12.27c5.72,0,12.11.51,14.63,1.02,3.7-3.02,6.73-7.06,6.73-14.13,0-10.25-7.57-15.29-21.02-15.29-5.04,0-9.41.16-12.61.33v28.07ZM150.49,348.03c3.53.16,7.39.33,12.11.33,15.29,0,25.89-5.21,25.89-17.31,0-7.23-3.7-12.94-12.44-15.13-3.02-.84-6.89-1.18-11.26-1.18h-14.29v33.3Z"/><path class="e" d="M163.65,365.82c-.19,0-.38,0-.57,0-13.27,0-24.26-.17-30.12-.33l-.25-.03c-.83-.16-2.22-.74-2.22-2.82v-107.08c0-.85,0-2.42,2.06-2.82l.24-.03c5.95-.18,20.02-.51,30.64-.51,36.71,0,40.67,21.28,40.67,30.43,0,11.27-5.36,18.13-9.56,21.77,6.34,3.73,14.94,11.51,14.94,26.31,0,8.95-3.16,16.81-9.14,22.75-8.03,7.98-21.05,12.36-36.69,12.36ZM133.49,362.51c5.94.15,16.69.32,29.6.32,15.13.12,27.57-3.98,35.13-11.48,5.48-5.44,8.25-12.38,8.25-20.62,0-14.09-8.33-21.23-15.31-24.73l-2.2-1.1,1.99-1.45c3.79-2.76,10.14-9.14,10.14-20.8,0-10.24-4.89-27.43-37.67-27.43-10.24,0-23.69.31-29.94.49v106.81ZM162.59,349.86c-4.67,0-8.42-.16-12.18-.33l-1.43-.07v-36.23h15.79c4.84,0,8.66.4,11.66,1.24,8.72,2.18,13.54,8.07,13.54,16.57,0,12.13-9.73,18.81-27.39,18.81ZM151.99,346.59c3.25.14,6.59.26,10.61.26,11.13,0,24.39-2.74,24.39-15.81,0-7.2-3.8-11.8-11.31-13.67-2.74-.76-6.39-1.14-10.9-1.14h-12.79v30.36ZM177.79,300.88l-.7-.14c-2.36-.48-8.69-.99-14.33-.99h-13.77v-31l1.42-.07c4.27-.22,8.53-.33,12.68-.33,14.52,0,22.52,5.96,22.52,16.79,0,8.37-4.15,12.73-7.28,15.29l-.55.45ZM151.99,296.76h10.77c5.5,0,11.33.46,14.2.92,2.74-2.36,5.65-5.93,5.65-12.53,0-9.15-6.57-13.79-19.52-13.79-3.64,0-7.37.09-11.11.26v25.14Z"/><path class="d" d="M249.5,361.21c-1.01,0-1.18-.33-1.18-1.35v-107.08c0-.67.17-1.35,1.01-1.35,11.26-.34,18.66-.51,31.27-.51,25.72,0,41.19,11.43,41.19,32.62,0,14.78-9.58,24.87-21.18,29.26,5.38,7.72,24.88,37.81,29.76,46.73.5.84.67,1.68-.34,1.68h-19.33c-1.35,0-1.68-.33-2.18-.84-4.71-7.74-16.3-27.24-23.7-39.34-1.17-2.02-2.02-2.86-3.87-2.86h-14.12v41.85c0,.85-.34,1.18-1.17,1.18h-16.14ZM280.93,301.86c13.79,0,21.86-6.55,21.86-17.31,0-11.43-8.57-17.15-22.87-17.15-5.38,0-10.42.34-13.11.51v33.95h14.12Z"/><path class="e" d="M330.02,362.71h-19.33c-1.84,0-2.54-.56-3.25-1.29l-.21-.27c-1.92-3.15-4.97-8.25-8.43-14.01-5.1-8.51-10.89-18.16-15.28-25.33-1.14-1.96-1.61-2.14-2.59-2.14h-12.62v40.36c0,1.68-1,2.68-2.67,2.68h-16.14c-2.68,0-2.68-2.14-2.68-2.85v-107.08c0-2.1,1.35-2.85,2.51-2.85,11.46-.35,18.71-.51,31.27-.51,27.13,0,42.69,12.44,42.69,34.12,0,13.35-7.58,24.42-20.39,29.95,6.71,9.85,24.25,37.04,28.78,45.32.65,1.09.77,2.06.32,2.86-.22.39-.77,1.04-1.97,1.04ZM309.69,359.44c.25.25.36.27,1,.27h18.05c-5.28-9.43-23.85-38.12-29.37-46.05l-1.1-1.58,1.8-.68c12.66-4.79,20.21-15.2,20.21-27.85,0-19.78-14.47-31.12-39.69-31.12-12.35,0-19.56.15-30.78.49v106.79h15.5v-43.04h15.62c2.83,0,4.06,1.71,5.17,3.6,4.38,7.16,10.16,16.81,15.27,25.33,3.39,5.66,6.41,10.68,8.32,13.84ZM249.38,252.93h0,0ZM280.93,303.36h-15.62v-36.87l2.14-.13c2.8-.17,7.5-.47,12.46-.47,15.71,0,24.37,6.62,24.37,18.65s-8.73,18.81-23.35,18.81ZM268.31,300.36h12.62c12.94,0,20.35-5.76,20.35-15.81,0-12.93-11.62-15.65-21.37-15.65-4.5,0-8.8.25-11.61.42v31.04Z"/><path class="d" d="M92.83,113.43l-7.93-1.37-1.91,2.4,5.52,4.39-2.61,3.28-15.4-12.27,5.74-7.21c2.56-3.21,6.22-3.5,9.08-1.22,2.73,2.17,2.82,5.04,1.89,7.01l8.62,1.21-3,3.77ZM78.66,105.4l-2.74,3.44,4.25,3.38,2.74-3.44c1.05-1.32,1.01-2.97-.29-4-1.29-1.03-2.91-.7-3.96.62Z"/><path class="d" d="M101.71,103.49l-14.07-13.77,2.93-3,14.07,13.77-2.93,3Z"/><path class="d" d="M104.26,87c-3.85-4.67-2.95-10.77,1.49-14.44,3.46-2.85,6.9-2.63,9.53-1.62l-1.65,3.66c-1.65-.7-3.83-.56-5.51.83-2.64,2.18-2.9,5.95-.53,8.82,2.37,2.87,6.12,3.34,8.76,1.16,1.69-1.39,2.26-3.47,1.87-5.25l3.89-.95c.46,2.79.07,6.22-3.39,9.07-4.44,3.66-10.61,3.39-14.46-1.28Z"/><path class="d" d="M141.35,72.07l-9.22-3.56-.34,2.36,3.19,5.14-3.56,2.21-10.37-16.74,3.56-2.21,4.63,7.48,1.29-11.15,4.39-2.72-1.79,11.98,12.6,4.48-4.39,2.72Z"/><path class="d" d="M177.05,55.87l-2.33-2.77-8.27,3v3.62s-4.34,1.57-4.34,1.57l.44-21.12,4.94-1.79,13.86,15.92-4.3,1.56ZM166.27,42.69v9.61s6.14-2.23,6.14-2.23l-6.14-7.39Z"/><path class="d" d="M201.46,49.73l-11.88-11.05,2.69,12.95-4.1.85-4-19.29,4.22-.88,11.52,10.64-2.59-12.49,4.11-.85,4,19.28-3.96.82Z"/><path class="d" d="M214.51,47.71l-1.19-19.67,7.76-.47c6.16-.37,10.68,3.29,11.03,9.22.36,5.93-3.68,10.08-9.85,10.45l-7.76.47ZM218.48,43.77l3.57-.22c3.89-.23,5.99-3.17,5.79-6.5-.21-3.48-2.49-6.04-6.53-5.79l-3.57.22.74,12.3Z"/><path class="d" d="M248.37,47.21l2.31-19.55,10.29,1.22c3.72.44,5.35,3.04,5.04,5.65-.29,2.46-2.01,3.92-3.9,4.09,2.04.57,3.47,2.79,3.18,5.25-.35,2.93-2.59,5.04-6.31,4.6l-10.61-1.26ZM252.95,44.16l5.36.63c1.58.19,2.63-.61,2.8-2.02.14-1.23-.61-2.39-2.25-2.58l-5.36-.63-.54,4.6ZM253.91,36.01l5.22.62c1.41.16,2.39-.64,2.54-1.9.14-1.2-.63-2.25-2.03-2.41l-5.22-.62-.51,4.31Z"/><path class="d" d="M283.71,53.53l-1.98-7.8-2.97-.76-1.76,6.84-4.06-1.05,4.92-19.08,8.92,2.3c3.98,1.02,5.74,4.25,4.82,7.8-.87,3.38-3.45,4.63-5.64,4.59l2.42,8.37-4.66-1.2ZM285.27,37.31l-4.26-1.1-1.36,5.26,4.26,1.1c1.63.42,3.13-.29,3.54-1.89.41-1.6-.55-2.95-2.18-3.37Z"/><path class="d" d="M312.62,42.41c5.51,2.3,7.88,7.9,5.59,13.38-2.29,5.48-7.93,7.74-13.44,5.44-5.48-2.29-7.85-7.88-5.57-13.37,2.29-5.48,7.93-7.74,13.41-5.45ZM311.18,45.84c-3.35-1.4-6.58.27-8,3.68-1.41,3.38-.34,6.87,3.02,8.27s6.62-.28,8.03-3.66c1.42-3.41.31-6.88-3.05-8.28Z"/><path class="d" d="M325.89,59.77c3.11-5.19,9.16-6.38,14.1-3.42,3.85,2.31,4.79,5.63,4.71,8.44l-4-.34c.11-1.79-.75-3.79-2.63-4.91-2.94-1.76-6.58-.74-8.49,2.44-1.91,3.19-1.1,6.88,1.84,8.64,1.87,1.12,4.03.97,5.58,0l2.19,3.35c-2.48,1.37-5.83,2.15-9.68-.16-4.94-2.96-6.73-8.86-3.62-14.05Z"/><path class="d" d="M352.32,89.69l.27-9.88-2.34.47-3.78,4.73-3.27-2.62,12.29-15.37,3.27,2.62-5.49,6.87,10.93-2.52,4.03,3.23-11.88,2.33v13.38s-4.03-3.23-4.03-3.23Z"/><path class="d" d="M370.38,88.75c1.03.3,2.67.18,3.59-.41-.11-.02-.34-.16-.48-.31-.8-.78-.82-2.04.05-2.92.91-.93,2.41-.95,3.3-.08.99.97,1.13,2.64-.21,4.01-1.55,1.58-3.82,2.13-6.01,1.8l-.23-2.09Z"/><path class="d" d="M375.93,104.26c-.22,2,.24,4.43,1.98,6.51,1.48,1.77,3.04,1.93,3.9,1.21,1.13-.95.42-2.58-.64-4.67-1.5-2.94-3.48-6.68-.1-9.51,2.51-2.11,6.37-1.64,9.35,1.92,2.01,2.4,2.95,5,2.82,7.65l-3.85.18c.11-2.17-.74-4.24-1.97-5.71-1.21-1.45-2.49-1.69-3.4-.93-1.02.86-.27,2.39.78,4.47,1.52,2.96,3.43,6.76.08,9.57-2.76,2.31-6.5,2.09-9.91-1.99-2.43-2.9-3.2-5.8-2.97-8.42l3.93-.28Z"/><path class="d" d="M72.35,354.41l16.56-12.91,6.8,8.71c2.46,3.16,1.71,6.34-.5,8.06-2.09,1.63-4.48,1.42-6.03.11,1.1,1.98.49,4.73-1.59,6.36-2.48,1.94-5.77,1.82-8.22-1.33l-7.01-8.99ZM78.11,355.6l3.54,4.55c1.05,1.34,2.43,1.53,3.63.61,1.04-.81,1.36-2.26.27-3.65l-3.54-4.54-3.9,3.04ZM85.01,350.21l3.45,4.42c.93,1.19,2.28,1.34,3.35.5,1.02-.79,1.23-2.16.3-3.35l-3.45-4.42-3.65,2.85Z"/><path class="d" d="M98.24,383.85l2.33-8.27-2.34-2.3-5.27,5.38-3.2-3.13,14.72-15.02,7.03,6.89c3.13,3.07,3.04,6.99.3,9.78-2.61,2.66-5.66,2.44-7.66,1.24l-2.23,9.03-3.67-3.6ZM108.34,369.68l-3.36-3.29-4.06,4.14,3.36,3.29c1.28,1.26,3.05,1.4,4.28.13,1.24-1.26,1.06-3.02-.22-4.28Z"/><path class="d" d="M109.14,393.39l13.12-16.41,3.49,2.79-13.12,16.41-3.49-2.79Z"/><path class="d" d="M125.56,393.05c3.49-5.43,9.98-6.51,15.15-3.19,4.03,2.58,4.92,6.15,4.76,9.15l-4.26-.49c.18-1.91-.68-4.07-2.64-5.33-3.08-1.97-6.99-1-9.13,2.34-2.14,3.34-1.39,7.3,1.68,9.28,1.96,1.26,4.27,1.17,5.95.18l2.23,3.64c-2.68,1.38-6.29,2.1-10.32-.48-5.17-3.32-6.9-9.67-3.41-15.1Z"/><path class="d" d="M156.19,422.2l-2.24-10.31-2.31,1.09-2.71,5.86-4.06-1.88,8.83-19.08,4.06,1.88-3.94,8.52,10.69-5.4,5.01,2.32-11.72,5.44,3.41,13.87-5.01-2.32Z"/><path class="d" d="M172.11,421.68c.95,1.92,2.76,3.83,5.53,4.7,2.35.73,3.84-.02,4.19-1.16.47-1.5-1.11-2.56-3.26-3.83-3.04-1.78-6.97-4-5.57-8.48,1.04-3.34,4.78-5.14,9.5-3.66,3.19,1,5.53,2.79,6.94,5.24l-3.36,2.38c-1.15-2.01-3.1-3.38-5.06-3.99-1.92-.6-3.21-.08-3.59,1.12-.42,1.35,1.13,2.3,3.27,3.57,3.07,1.79,6.97,4.1,5.58,8.55-1.15,3.67-4.63,5.62-10.04,3.92-3.85-1.21-6.21-3.37-7.51-5.85l3.36-2.51Z"/><path class="d" d="M221.84,438.31l-.96-3.74-9.34-.93-1.68,3.48-4.89-.48,10.16-20.11,5.58.55,5.98,21.71-4.86-.48ZM217.54,420.66l-4.43,9.25,6.93.69-2.5-9.94Z"/><path class="d" d="M245.72,438.47l-10.39-13.84.38,14.11-4.47.12-.56-21,4.6-.12,10.09,13.34-.37-13.6,4.47-.12.56,21-4.31.12Z"/><path class="d" d="M260.21,437.34l-3.58-20.71,8.16-1.41c6.49-1.12,11.7,2.23,12.78,8.47,1.08,6.24-2.71,11.12-9.2,12.24l-8.16,1.41ZM263.95,432.7l3.76-.65c4.1-.71,5.98-4.07,5.37-7.58-.63-3.66-3.36-6.1-7.61-5.37l-3.76.65,2.24,12.95Z"/><path class="d" d="M312.97,422.92l-6.64-5.44-3.04,1.23,2.81,6.98-4.15,1.67-7.85-19.49,9.12-3.67c4.06-1.63,7.62.02,9.08,3.65,1.39,3.45-.03,6.16-1.94,7.5l7.37,5.66-4.76,1.92ZM304.04,408.01l-4.35,1.75,2.16,5.38,4.35-1.75c1.67-.67,2.5-2.23,1.84-3.87-.66-1.63-2.34-2.18-4-1.51Z"/><path class="d" d="M324.52,393.27c5.5-3.19,11.78-1.6,14.96,3.87,3.18,5.47,1.45,11.72-4.05,14.91-5.47,3.18-11.75,1.58-14.93-3.89-3.18-5.47-1.45-11.72,4.02-14.89ZM326.52,396.7c-3.35,1.94-4.01,5.75-2.04,9.16,1.96,3.38,5.61,4.71,8.96,2.77,3.35-1.94,4.02-5.8,2.07-9.17-1.98-3.4-5.64-4.7-8.99-2.75Z"/><path class="d" d="M345.45,392.93c-4.02-5.05-2.95-11.55,1.85-15.37,3.75-2.98,7.41-2.68,10.2-1.55l-1.83,3.87c-1.75-.78-4.07-.66-5.9.79-2.86,2.28-3.2,6.3-.73,9.4,2.47,3.11,6.47,3.67,9.33,1.39,1.82-1.45,2.48-3.66,2.09-5.57l4.17-.94c.45,2.99-.03,6.63-3.78,9.62-4.81,3.83-11.38,3.42-15.4-1.63Z"/><path class="d" d="M382.93,373.39l-10.48-1.23.28,2.53,4.66,4.47-3.1,3.23-15.17-14.54,3.1-3.23,6.78,6.5-1.63-11.86,3.82-3.98,1.34,12.85,14.22,1.28-3.82,3.98Z"/><path class="d" d="M387.54,358.26c2.12-.27,4.53-1.35,6.25-3.68,1.46-1.98,1.24-3.63.28-4.34-1.27-.94-2.78.21-4.68,1.82-2.68,2.29-6.06,5.27-9.83,2.48-2.81-2.08-3.29-6.2-.35-10.17,1.99-2.68,4.45-4.31,7.23-4.84l1.15,3.95c-2.28.43-4.21,1.82-5.43,3.46-1.2,1.62-1.13,3.01-.12,3.76,1.14.84,2.54-.31,4.44-1.92,2.69-2.32,6.15-5.24,9.9-2.47,3.09,2.29,3.79,6.21.41,10.77-2.4,3.24-5.21,4.76-7.99,5.18l-1.27-4Z"/><path class="d" d="M401.23,339.23l-3.36-2.17c26.96-41.68,30.75-83.69,30.62-105.02-.34-53.72-23.77-93.78-37.71-112.88l3.23-2.36c14.22,19.49,38.13,60.37,38.48,115.21.14,21.78-3.74,64.66-31.26,107.22Z"/><path class="d" d="M71.59,348.67c-6.29-8.81-37.65-55.85-37.68-116.64,0-2.84.06-5.76.2-8.67.44-9.72,4.22-60.14,35.38-104.98l3.29,2.28c-30.54,43.94-34.24,93.35-34.67,102.81-.13,2.92-.2,5.77-.2,8.55.04,59.58,30.78,105.69,36.94,114.32l-3.26,2.32Z"/><rect class="e" x="191.84" y="303.08" width="12.43" height="3" transform="translate(-3.06 2.01) rotate(-.58)"/><rect class="e" x="300.6" y="311.24" width="15.21" height="3" transform="translate(-2.64 2.62) rotate(-.48)"/><rect class="e" x="308.68" y="151.57" width="12.43" height="3" transform="translate(-1.48 3.08) rotate(-.56)"/><rect class="e" x="178.71" y="162.51" width="17.99" height="3" transform="translate(-1.12 1.29) rotate(-.39)"/></g></svg>